<?xml version="1.0" standalone="no"?>
<!DOCTYPE svg PUBLIC "-//W3C//DTD SVG 20010904//EN"
 "http://www.w3.org/TR/2001/REC-SVG-20010904/DTD/svg10.dtd">
<svg version="1.0" xmlns="http://www.w3.org/2000/svg"
 width="700.000000pt" height="700.000000pt" viewBox="0 0 700.000000 700.000000"
 preserveAspectRatio="xMidYMid meet">
<metadata>
Created by potrace 1.14, written by Peter Selinger 2001-2017
</metadata>
<g transform="translate(0.000000,700.000000) scale(0.100000,-0.100000)"
fill="#000000" stroke="none">
<path d="M1577 6759 l-28 -28 1 -268 c0 -147 0 -292 0 -320 l0 -53 -104 0
c-157 0 -163 -9 -161 -237 l1 -143 -45 0 c-25 0 -251 -2 -501 -3 l-455 -2 -65
-33 c-83 -41 -151 -108 -187 -180 l-28 -57 -2 -2025 -2 -2025 24 -60 c17 -43
40 -75 80 -112 99 -93 -21 -87 1510 -87 l1340 -1 1 -373 c0 -204 -2 -372 -5
-373 -3 0 -151 -2 -328 -2 -319 -2 -323 -2 -345 -24 -30 -30 -30 -86 0 -116
l23 -22 1200 0 1201 0 25 29 c31 36 26 81 -12 112 -24 19 -37 20 -333 19 -169
0 -314 3 -323 7 -14 6 -16 47 -15 375 l1 368 1350 0 1350 1 65 31 c80 38 125
81 159 153 l26 55 0 2035 0 2035 -27 56 c-37 73 -107 142 -188 182 l-65 32
-410 2 c-225 1 -416 3 -422 3 -10 0 -13 40 -13 165 l0 166 -26 24 c-25 23 -34
25 -133 25 l-107 0 2 313 c1 340 -1 356 -53 374 -56 20 -502 -1 -697 -32 -122
-20 -222 -37 -226 -40 -3 -2 -23 -6 -45 -9 -22 -4 -48 -9 -57 -12 -9 -3 -25
-6 -35 -8 -95 -19 -292 -82 -443 -143 -114 -46 -320 -148 -372 -184 -14 -11
-29 -19 -33 -19 -4 0 -20 -9 -36 -21 l-30 -21 -82 50 c-272 167 -678 318
-1007 376 -19 3 -46 8 -60 11 -14 3 -45 8 -70 11 -25 3 -56 8 -70 10 -14 2
-50 6 -80 9 -30 3 -68 8 -85 10 -68 9 -219 17 -365 20 l-155 2 -28 -28z"/>
</g>
</svg>
